<svg xmlns="http://www.w3.org/2000/svg" viewBox="0 0 16 16" id="thumbs-up-outline-small" aria-hidden="true" role="none" data-supported-dps="16x16" fill="currentColor">
  <path d="M12.91 7l-2.25-2.57a8.21 8.21 0 01-1.5-2.55L9 1.37A2.08 2.08 0 007 0a2.08 2.08 0 00-2.06 2.08v1.17a5.81 5.81 0 00.31 1.89l.28.86H2.38A1.47 1.47 0 001 7.47a1.45 1.45 0 00.64 1.21 1.48 1.48 0 00-.37 2.06 1.54 1.54 0 00.62.51h.05a1.6 1.6 0 00-.19.71A1.47 1.47 0 003 13.42v.1A1.46 1.46 0 004.4 15h4.83a5.61 5.61 0 002.48-.58l1-.42H14V7zM12 12.11l-1.19.52a3.59 3.59 0 01-1.58.37H5.1a.55.55 0 01-.53-.4l-.14-.48-.49-.21a.56.56 0 01-.34-.6l.09-.56-.42-.42a.56.56 0 01-.09-.68L3.55 9l-.4-.61A.28.28 0 013.3 8h5L7.14 4.51a4.15 4.15 0 01-.2-1.26V2.08A.09.09 0 017 2a.11.11 0 01.08 0l.18.51a10 10 0 001.9 3.24l2.84 3z"/>
</svg>
